<mxfile host="app.diagrams.net" modified="2023-03-21T08:50:15.015Z" agent="5.0 (Windows NT 10.0; Win64; x64) AppleWebKit/537.36 (KHTML, like Gecko) Chrome/111.0.0.0 Safari/537.36" etag="HWyngpOQfE2xlMFcyHmV" version="21.0.4" type="github">
  <diagram id="R2lEEEUBdFMjLlhIrx00" name="Page-1">
    <mxGraphModel dx="3066" dy="728" grid="1" gridSize="10" guides="1" tooltips="1" connect="1" arrows="1" fold="1" page="1" pageScale="1" pageWidth="850" pageHeight="1100" math="0" shadow="0" extFonts="Permanent Marker^https://fonts.googleapis.com/css?family=Permanent+Marker">
      <root>
        <mxCell id="0" />
        <mxCell id="1" parent="0" />
        <mxCell id="y22QqrorP2YCijcktkEK-3" style="edgeStyle=orthogonalEdgeStyle;rounded=0;orthogonalLoop=1;jettySize=auto;html=1;exitX=1;exitY=0.5;exitDx=0;exitDy=0;entryX=0;entryY=0.5;entryDx=0;entryDy=0;endArrow=none;endFill=0;" parent="1" source="y22QqrorP2YCijcktkEK-1" target="y22QqrorP2YCijcktkEK-2" edge="1">
          <mxGeometry relative="1" as="geometry" />
        </mxCell>
        <mxCell id="y22QqrorP2YCijcktkEK-1" value="银行储户" style="rounded=0;whiteSpace=wrap;html=1;" parent="1" vertex="1">
          <mxGeometry x="230" y="105" width="80" height="40" as="geometry" />
        </mxCell>
        <mxCell id="y22QqrorP2YCijcktkEK-32" style="edgeStyle=orthogonalEdgeStyle;rounded=0;orthogonalLoop=1;jettySize=auto;html=1;exitX=1;exitY=1;exitDx=0;exitDy=0;entryX=0.5;entryY=0;entryDx=0;entryDy=0;endArrow=none;endFill=0;" parent="1" source="y22QqrorP2YCijcktkEK-2" target="y22QqrorP2YCijcktkEK-8" edge="1">
          <mxGeometry relative="1" as="geometry">
            <Array as="points">
              <mxPoint x="428" y="180" />
              <mxPoint x="495" y="180" />
            </Array>
          </mxGeometry>
        </mxCell>
        <mxCell id="y22QqrorP2YCijcktkEK-2" value="存取款业务" style="rhombus;whiteSpace=wrap;html=1;" parent="1" vertex="1">
          <mxGeometry x="360" y="100" width="90" height="50" as="geometry" />
        </mxCell>
        <mxCell id="y22QqrorP2YCijcktkEK-5" style="edgeStyle=orthogonalEdgeStyle;rounded=0;orthogonalLoop=1;jettySize=auto;html=1;exitX=0;exitY=0.5;exitDx=0;exitDy=0;entryX=1;entryY=0.5;entryDx=0;entryDy=0;endArrow=none;endFill=0;" parent="1" source="y22QqrorP2YCijcktkEK-4" target="y22QqrorP2YCijcktkEK-2" edge="1">
          <mxGeometry relative="1" as="geometry" />
        </mxCell>
        <mxCell id="y22QqrorP2YCijcktkEK-27" style="edgeStyle=orthogonalEdgeStyle;rounded=0;orthogonalLoop=1;jettySize=auto;html=1;exitX=0.5;exitY=0;exitDx=0;exitDy=0;entryX=0;entryY=0.5;entryDx=0;entryDy=0;endArrow=none;endFill=0;" parent="1" source="y22QqrorP2YCijcktkEK-4" target="y22QqrorP2YCijcktkEK-25" edge="1">
          <mxGeometry relative="1" as="geometry" />
        </mxCell>
        <mxCell id="y22QqrorP2YCijcktkEK-28" style="edgeStyle=orthogonalEdgeStyle;rounded=0;orthogonalLoop=1;jettySize=auto;html=1;exitX=0.5;exitY=1;exitDx=0;exitDy=0;entryX=0;entryY=0.5;entryDx=0;entryDy=0;endArrow=none;endFill=0;" parent="1" source="y22QqrorP2YCijcktkEK-4" target="y22QqrorP2YCijcktkEK-26" edge="1">
          <mxGeometry relative="1" as="geometry" />
        </mxCell>
        <mxCell id="y22QqrorP2YCijcktkEK-4" value="银行" style="rounded=0;whiteSpace=wrap;html=1;" parent="1" vertex="1">
          <mxGeometry x="505" y="107.5" width="80" height="35" as="geometry" />
        </mxCell>
        <mxCell id="y22QqrorP2YCijcktkEK-13" style="edgeStyle=orthogonalEdgeStyle;rounded=0;orthogonalLoop=1;jettySize=auto;html=1;exitX=0.5;exitY=0;exitDx=0;exitDy=0;entryX=0;entryY=1;entryDx=0;entryDy=0;endArrow=none;endFill=0;" parent="1" source="y22QqrorP2YCijcktkEK-6" target="y22QqrorP2YCijcktkEK-2" edge="1">
          <mxGeometry relative="1" as="geometry" />
        </mxCell>
        <mxCell id="y22QqrorP2YCijcktkEK-6" value="类型" style="ellipse;whiteSpace=wrap;html=1;" parent="1" vertex="1">
          <mxGeometry x="300" y="207.5" width="50" height="35" as="geometry" />
        </mxCell>
        <mxCell id="y22QqrorP2YCijcktkEK-14" style="edgeStyle=orthogonalEdgeStyle;rounded=0;orthogonalLoop=1;jettySize=auto;html=1;exitX=0.5;exitY=0;exitDx=0;exitDy=0;entryX=0.5;entryY=1;entryDx=0;entryDy=0;endArrow=none;endFill=0;" parent="1" source="y22QqrorP2YCijcktkEK-7" target="y22QqrorP2YCijcktkEK-2" edge="1">
          <mxGeometry relative="1" as="geometry" />
        </mxCell>
        <mxCell id="y22QqrorP2YCijcktkEK-7" value="存/取款日期" style="ellipse;whiteSpace=wrap;html=1;" parent="1" vertex="1">
          <mxGeometry x="365" y="205" width="80" height="40" as="geometry" />
        </mxCell>
        <mxCell id="y22QqrorP2YCijcktkEK-8" value="到期日期" style="ellipse;whiteSpace=wrap;html=1;" parent="1" vertex="1">
          <mxGeometry x="460" y="207.5" width="70" height="40" as="geometry" />
        </mxCell>
        <mxCell id="y22QqrorP2YCijcktkEK-11" style="edgeStyle=orthogonalEdgeStyle;rounded=0;orthogonalLoop=1;jettySize=auto;html=1;exitX=0.5;exitY=1;exitDx=0;exitDy=0;entryX=0;entryY=0;entryDx=0;entryDy=0;endArrow=none;endFill=0;" parent="1" source="y22QqrorP2YCijcktkEK-9" target="y22QqrorP2YCijcktkEK-2" edge="1">
          <mxGeometry relative="1" as="geometry" />
        </mxCell>
        <mxCell id="y22QqrorP2YCijcktkEK-9" value="利率" style="ellipse;whiteSpace=wrap;html=1;" parent="1" vertex="1">
          <mxGeometry x="350" y="40" width="40" height="30" as="geometry" />
        </mxCell>
        <mxCell id="y22QqrorP2YCijcktkEK-12" style="edgeStyle=orthogonalEdgeStyle;rounded=0;orthogonalLoop=1;jettySize=auto;html=1;exitX=0.5;exitY=1;exitDx=0;exitDy=0;entryX=1;entryY=0;entryDx=0;entryDy=0;endArrow=none;endFill=0;" parent="1" source="y22QqrorP2YCijcktkEK-10" target="y22QqrorP2YCijcktkEK-2" edge="1">
          <mxGeometry relative="1" as="geometry" />
        </mxCell>
        <mxCell id="y22QqrorP2YCijcktkEK-10" value="密码" style="ellipse;whiteSpace=wrap;html=1;" parent="1" vertex="1">
          <mxGeometry x="420" y="40" width="40" height="30" as="geometry" />
        </mxCell>
        <mxCell id="y22QqrorP2YCijcktkEK-21" style="edgeStyle=orthogonalEdgeStyle;rounded=0;orthogonalLoop=1;jettySize=auto;html=1;exitX=1;exitY=0.5;exitDx=0;exitDy=0;entryX=0.75;entryY=0;entryDx=0;entryDy=0;endArrow=none;endFill=0;" parent="1" source="y22QqrorP2YCijcktkEK-16" target="y22QqrorP2YCijcktkEK-1" edge="1">
          <mxGeometry relative="1" as="geometry" />
        </mxCell>
        <mxCell id="y22QqrorP2YCijcktkEK-16" value="姓名" style="ellipse;whiteSpace=wrap;html=1;" parent="1" vertex="1">
          <mxGeometry x="135" y="30" width="50" height="30" as="geometry" />
        </mxCell>
        <mxCell id="y22QqrorP2YCijcktkEK-22" style="edgeStyle=orthogonalEdgeStyle;rounded=0;orthogonalLoop=1;jettySize=auto;html=1;exitX=1;exitY=0.5;exitDx=0;exitDy=0;entryX=0.5;entryY=0;entryDx=0;entryDy=0;endArrow=none;endFill=0;" parent="1" source="y22QqrorP2YCijcktkEK-17" target="y22QqrorP2YCijcktkEK-1" edge="1">
          <mxGeometry relative="1" as="geometry" />
        </mxCell>
        <mxCell id="y22QqrorP2YCijcktkEK-17" value="住址" style="ellipse;whiteSpace=wrap;html=1;" parent="1" vertex="1">
          <mxGeometry x="135" y="70" width="50" height="30" as="geometry" />
        </mxCell>
        <mxCell id="y22QqrorP2YCijcktkEK-23" style="edgeStyle=orthogonalEdgeStyle;rounded=0;orthogonalLoop=1;jettySize=auto;html=1;exitX=1;exitY=0.5;exitDx=0;exitDy=0;entryX=0.5;entryY=1;entryDx=0;entryDy=0;endArrow=none;endFill=0;" parent="1" source="y22QqrorP2YCijcktkEK-18" target="y22QqrorP2YCijcktkEK-1" edge="1">
          <mxGeometry relative="1" as="geometry" />
        </mxCell>
        <mxCell id="y22QqrorP2YCijcktkEK-18" value="电话号码" style="ellipse;whiteSpace=wrap;html=1;" parent="1" vertex="1">
          <mxGeometry x="130" y="160" width="60" height="30" as="geometry" />
        </mxCell>
        <mxCell id="y22QqrorP2YCijcktkEK-24" style="edgeStyle=orthogonalEdgeStyle;rounded=0;orthogonalLoop=1;jettySize=auto;html=1;exitX=1;exitY=0.5;exitDx=0;exitDy=0;entryX=0.75;entryY=1;entryDx=0;entryDy=0;endArrow=none;endFill=0;" parent="1" source="y22QqrorP2YCijcktkEK-19" target="y22QqrorP2YCijcktkEK-1" edge="1">
          <mxGeometry relative="1" as="geometry" />
        </mxCell>
        <mxCell id="y22QqrorP2YCijcktkEK-19" value="身份证号码" style="ellipse;whiteSpace=wrap;html=1;" parent="1" vertex="1">
          <mxGeometry x="120" y="205" width="80" height="40" as="geometry" />
        </mxCell>
        <mxCell id="y22QqrorP2YCijcktkEK-25" value="银行名称" style="ellipse;whiteSpace=wrap;html=1;" parent="1" vertex="1">
          <mxGeometry x="600" y="60" width="60" height="35" as="geometry" />
        </mxCell>
        <mxCell id="y22QqrorP2YCijcktkEK-26" value="所处地址" style="ellipse;whiteSpace=wrap;html=1;" parent="1" vertex="1">
          <mxGeometry x="595" y="150" width="70" height="40" as="geometry" />
        </mxCell>
        <mxCell id="y22QqrorP2YCijcktkEK-29" value="M" style="text;html=1;align=center;verticalAlign=middle;resizable=0;points=[];autosize=1;strokeColor=none;fillColor=none;" parent="1" vertex="1">
          <mxGeometry x="320" y="90" width="30" height="30" as="geometry" />
        </mxCell>
        <mxCell id="y22QqrorP2YCijcktkEK-30" value="N" style="text;html=1;align=center;verticalAlign=middle;resizable=0;points=[];autosize=1;strokeColor=none;fillColor=none;" parent="1" vertex="1">
          <mxGeometry x="460" y="90" width="30" height="30" as="geometry" />
        </mxCell>
        <mxCell id="y22QqrorP2YCijcktkEK-64" style="edgeStyle=orthogonalEdgeStyle;rounded=0;orthogonalLoop=1;jettySize=auto;html=1;exitX=0.75;exitY=1;exitDx=0;exitDy=0;entryX=-0.005;entryY=0.517;entryDx=0;entryDy=0;entryPerimeter=0;" parent="1" source="y22QqrorP2YCijcktkEK-33" target="y22QqrorP2YCijcktkEK-49" edge="1">
          <mxGeometry relative="1" as="geometry" />
        </mxCell>
        <mxCell id="y22QqrorP2YCijcktkEK-65" style="edgeStyle=orthogonalEdgeStyle;rounded=0;orthogonalLoop=1;jettySize=auto;html=1;exitX=0.75;exitY=0;exitDx=0;exitDy=0;entryX=0.003;entryY=0.39;entryDx=0;entryDy=0;entryPerimeter=0;" parent="1" source="y22QqrorP2YCijcktkEK-33" target="y22QqrorP2YCijcktkEK-41" edge="1">
          <mxGeometry relative="1" as="geometry" />
        </mxCell>
        <mxCell id="y22QqrorP2YCijcktkEK-33" value="银行储户" style="rounded=0;whiteSpace=wrap;html=1;" parent="1" vertex="1">
          <mxGeometry x="47.5" y="450" width="55" height="50" as="geometry" />
        </mxCell>
        <mxCell id="y22QqrorP2YCijcktkEK-35" value="1" style="swimlane;childLayout=stackLayout;horizontal=1;startSize=20;horizontalStack=0;rounded=1;fontSize=14;fontStyle=0;strokeWidth=2;resizeParent=0;resizeLast=1;shadow=0;dashed=0;align=center;arcSize=4;whiteSpace=wrap;html=1;" parent="1" vertex="1">
          <mxGeometry x="230" y="360" width="90" height="80" as="geometry" />
        </mxCell>
        <mxCell id="y22QqrorP2YCijcktkEK-41" value="存款信息保存" style="text;html=1;align=center;verticalAlign=middle;resizable=0;points=[];autosize=1;strokeColor=none;fillColor=none;" parent="y22QqrorP2YCijcktkEK-35" vertex="1">
          <mxGeometry y="20" width="90" height="60" as="geometry" />
        </mxCell>
        <mxCell id="y22QqrorP2YCijcktkEK-38" value="3" style="swimlane;childLayout=stackLayout;horizontal=1;startSize=20;horizontalStack=0;rounded=1;fontSize=14;fontStyle=0;strokeWidth=2;resizeParent=0;resizeLast=1;shadow=0;dashed=0;align=center;arcSize=4;whiteSpace=wrap;html=1;" parent="1" vertex="1">
          <mxGeometry x="227.5" y="570" width="95" height="80" as="geometry" />
        </mxCell>
        <mxCell id="y22QqrorP2YCijcktkEK-49" value="核对储户密码" style="text;html=1;align=center;verticalAlign=middle;resizable=0;points=[];autosize=1;strokeColor=none;fillColor=none;" parent="y22QqrorP2YCijcktkEK-38" vertex="1">
          <mxGeometry y="20" width="95" height="60" as="geometry" />
        </mxCell>
        <mxCell id="y22QqrorP2YCijcktkEK-40" value="2" style="swimlane;childLayout=stackLayout;horizontal=1;startSize=20;horizontalStack=0;rounded=1;fontSize=14;fontStyle=0;strokeWidth=2;resizeParent=0;resizeLast=1;shadow=0;dashed=0;align=center;arcSize=4;whiteSpace=wrap;html=1;" parent="1" vertex="1">
          <mxGeometry x="437.5" y="360" width="95" height="80" as="geometry" />
        </mxCell>
        <mxCell id="y22QqrorP2YCijcktkEK-42" value="印出存款存单" style="text;html=1;align=center;verticalAlign=middle;resizable=0;points=[];autosize=1;strokeColor=none;fillColor=none;" parent="y22QqrorP2YCijcktkEK-40" vertex="1">
          <mxGeometry y="20" width="95" height="60" as="geometry" />
        </mxCell>
        <mxCell id="y22QqrorP2YCijcktkEK-44" value="4" style="swimlane;childLayout=stackLayout;horizontal=1;startSize=20;horizontalStack=0;rounded=1;fontSize=14;fontStyle=0;strokeWidth=2;resizeParent=0;resizeLast=1;shadow=0;dashed=0;align=center;arcSize=4;whiteSpace=wrap;html=1;" parent="1" vertex="1">
          <mxGeometry x="412.5" y="570" width="95" height="80" as="geometry" />
        </mxCell>
        <mxCell id="y22QqrorP2YCijcktkEK-50" value="系统结算利息" style="text;html=1;align=center;verticalAlign=middle;resizable=0;points=[];autosize=1;strokeColor=none;fillColor=none;" parent="y22QqrorP2YCijcktkEK-44" vertex="1">
          <mxGeometry y="20" width="95" height="60" as="geometry" />
        </mxCell>
        <mxCell id="y22QqrorP2YCijcktkEK-45" value="5" style="swimlane;childLayout=stackLayout;horizontal=1;startSize=20;horizontalStack=0;rounded=1;fontSize=14;fontStyle=0;strokeWidth=2;resizeParent=0;resizeLast=1;shadow=0;dashed=0;align=center;arcSize=4;whiteSpace=wrap;html=1;" parent="1" vertex="1">
          <mxGeometry x="570" y="570" width="95" height="80" as="geometry" />
        </mxCell>
        <mxCell id="y22QqrorP2YCijcktkEK-51" value="印出利息清单" style="text;html=1;align=center;verticalAlign=middle;resizable=0;points=[];autosize=1;strokeColor=none;fillColor=none;" parent="y22QqrorP2YCijcktkEK-45" vertex="1">
          <mxGeometry y="20" width="95" height="60" as="geometry" />
        </mxCell>
        <mxCell id="y22QqrorP2YCijcktkEK-55" style="edgeStyle=orthogonalEdgeStyle;rounded=0;orthogonalLoop=1;jettySize=auto;html=1;" parent="1" source="y22QqrorP2YCijcktkEK-41" target="y22QqrorP2YCijcktkEK-42" edge="1">
          <mxGeometry relative="1" as="geometry" />
        </mxCell>
        <mxCell id="y22QqrorP2YCijcktkEK-56" style="edgeStyle=orthogonalEdgeStyle;rounded=0;orthogonalLoop=1;jettySize=auto;html=1;entryX=0.013;entryY=0.49;entryDx=0;entryDy=0;entryPerimeter=0;" parent="1" source="y22QqrorP2YCijcktkEK-49" target="y22QqrorP2YCijcktkEK-50" edge="1">
          <mxGeometry relative="1" as="geometry" />
        </mxCell>
        <mxCell id="y22QqrorP2YCijcktkEK-57" style="edgeStyle=orthogonalEdgeStyle;rounded=0;orthogonalLoop=1;jettySize=auto;html=1;entryX=0.017;entryY=0.503;entryDx=0;entryDy=0;entryPerimeter=0;" parent="1" source="y22QqrorP2YCijcktkEK-50" target="y22QqrorP2YCijcktkEK-51" edge="1">
          <mxGeometry relative="1" as="geometry" />
        </mxCell>
        <mxCell id="y22QqrorP2YCijcktkEK-58" value="存款单" style="text;html=1;align=center;verticalAlign=middle;resizable=0;points=[];autosize=1;strokeColor=none;fillColor=none;" parent="1" vertex="1">
          <mxGeometry x="127.5" y="375" width="60" height="30" as="geometry" />
        </mxCell>
        <mxCell id="y22QqrorP2YCijcktkEK-59" value="取款单" style="text;html=1;align=center;verticalAlign=middle;resizable=0;points=[];autosize=1;strokeColor=none;fillColor=none;" parent="1" vertex="1">
          <mxGeometry x="127.5" y="590" width="60" height="30" as="geometry" />
        </mxCell>
        <mxCell id="y22QqrorP2YCijcktkEK-60" value="D1" style="swimlane;horizontal=0;whiteSpace=wrap;html=1;startSize=23;" parent="1" vertex="1">
          <mxGeometry x="225" y="490" width="105" height="30" as="geometry">
            <mxRectangle x="225" y="490" width="40" height="50" as="alternateBounds" />
          </mxGeometry>
        </mxCell>
        <mxCell id="y22QqrorP2YCijcktkEK-61" value="存款信息" style="text;html=1;align=center;verticalAlign=middle;resizable=0;points=[];autosize=1;strokeColor=none;fillColor=none;" parent="y22QqrorP2YCijcktkEK-60" vertex="1">
          <mxGeometry x="25" width="70" height="30" as="geometry" />
        </mxCell>
        <mxCell id="y22QqrorP2YCijcktkEK-66" style="edgeStyle=orthogonalEdgeStyle;rounded=0;orthogonalLoop=1;jettySize=auto;html=1;entryX=0.359;entryY=-0.033;entryDx=0;entryDy=0;entryPerimeter=0;" parent="1" source="y22QqrorP2YCijcktkEK-41" target="y22QqrorP2YCijcktkEK-61" edge="1">
          <mxGeometry relative="1" as="geometry" />
        </mxCell>
        <mxCell id="y22QqrorP2YCijcktkEK-67" style="edgeStyle=orthogonalEdgeStyle;rounded=0;orthogonalLoop=1;jettySize=auto;html=1;entryX=0.5;entryY=0;entryDx=0;entryDy=0;" parent="1" source="y22QqrorP2YCijcktkEK-61" target="y22QqrorP2YCijcktkEK-38" edge="1">
          <mxGeometry relative="1" as="geometry">
            <Array as="points">
              <mxPoint x="275.5" y="545" />
            </Array>
          </mxGeometry>
        </mxCell>
        <mxCell id="y22QqrorP2YCijcktkEK-68" value="存款信息" style="text;html=1;align=center;verticalAlign=middle;resizable=0;points=[];autosize=1;strokeColor=none;fillColor=none;" parent="1" vertex="1">
          <mxGeometry x="337.5" y="385" width="70" height="30" as="geometry" />
        </mxCell>
        <mxCell id="y22QqrorP2YCijcktkEK-69" value="存款信息" style="text;html=1;align=center;verticalAlign=middle;resizable=0;points=[];autosize=1;strokeColor=none;fillColor=none;" parent="1" vertex="1">
          <mxGeometry x="277.5" y="450" width="70" height="30" as="geometry" />
        </mxCell>
        <mxCell id="y22QqrorP2YCijcktkEK-70" value="存款信息" style="text;html=1;align=center;verticalAlign=middle;resizable=0;points=[];autosize=1;strokeColor=none;fillColor=none;" parent="1" vertex="1">
          <mxGeometry x="277.5" y="530" width="70" height="30" as="geometry" />
        </mxCell>
        <mxCell id="y22QqrorP2YCijcktkEK-71" value="存款信息" style="text;html=1;align=center;verticalAlign=middle;resizable=0;points=[];autosize=1;strokeColor=none;fillColor=none;" parent="1" vertex="1">
          <mxGeometry x="330" y="590" width="70" height="30" as="geometry" />
        </mxCell>
        <mxCell id="y22QqrorP2YCijcktkEK-72" value="利息" style="text;html=1;align=center;verticalAlign=middle;resizable=0;points=[];autosize=1;strokeColor=none;fillColor=none;" parent="1" vertex="1">
          <mxGeometry x="507.5" y="595" width="50" height="30" as="geometry" />
        </mxCell>
        <mxCell id="y22QqrorP2YCijcktkEK-75" value="存款存单" style="text;html=1;align=center;verticalAlign=middle;resizable=0;points=[];autosize=1;strokeColor=none;fillColor=none;" parent="1" vertex="1">
          <mxGeometry x="630" y="375" width="70" height="30" as="geometry" />
        </mxCell>
        <mxCell id="y22QqrorP2YCijcktkEK-76" value="利息清单" style="text;html=1;align=center;verticalAlign=middle;resizable=0;points=[];autosize=1;strokeColor=none;fillColor=none;" parent="1" vertex="1">
          <mxGeometry x="700" y="590" width="70" height="30" as="geometry" />
        </mxCell>
        <mxCell id="Xvyv53QH8Qv-foMU50Eb-1" value="银行储户" style="rounded=0;whiteSpace=wrap;html=1;" parent="1" vertex="1">
          <mxGeometry x="750" y="450" width="55" height="50" as="geometry" />
        </mxCell>
        <mxCell id="Xvyv53QH8Qv-foMU50Eb-2" style="edgeStyle=orthogonalEdgeStyle;rounded=0;orthogonalLoop=1;jettySize=auto;html=1;entryX=0.5;entryY=0;entryDx=0;entryDy=0;" parent="1" source="y22QqrorP2YCijcktkEK-42" target="Xvyv53QH8Qv-foMU50Eb-1" edge="1">
          <mxGeometry relative="1" as="geometry" />
        </mxCell>
        <mxCell id="Xvyv53QH8Qv-foMU50Eb-3" style="edgeStyle=orthogonalEdgeStyle;rounded=0;orthogonalLoop=1;jettySize=auto;html=1;entryX=0.5;entryY=1;entryDx=0;entryDy=0;" parent="1" source="y22QqrorP2YCijcktkEK-51" target="Xvyv53QH8Qv-foMU50Eb-1" edge="1">
          <mxGeometry relative="1" as="geometry" />
        </mxCell>
        <mxCell id="Xvyv53QH8Qv-foMU50Eb-17" value="闲置状态" style="swimlane;childLayout=stackLayout;horizontal=1;startSize=20;horizontalStack=0;rounded=1;fontSize=14;fontStyle=0;strokeWidth=2;resizeParent=0;resizeLast=1;shadow=0;dashed=0;align=center;arcSize=4;whiteSpace=wrap;html=1;" parent="1" vertex="1">
          <mxGeometry x="-40" y="810" width="95" height="80" as="geometry" />
        </mxCell>
        <mxCell id="Xvyv53QH8Qv-foMU50Eb-18" value="核对储户密码" style="text;html=1;align=center;verticalAlign=middle;resizable=0;points=[];autosize=1;strokeColor=none;fillColor=none;" parent="Xvyv53QH8Qv-foMU50Eb-17" vertex="1">
          <mxGeometry y="20" width="95" height="60" as="geometry" />
        </mxCell>
        <mxCell id="Xvyv53QH8Qv-foMU50Eb-29" style="edgeStyle=orthogonalEdgeStyle;rounded=0;orthogonalLoop=1;jettySize=auto;html=1;entryX=1.023;entryY=0.33;entryDx=0;entryDy=0;entryPerimeter=0;" parent="1" source="Xvyv53QH8Qv-foMU50Eb-22" target="Xvyv53QH8Qv-foMU50Eb-18" edge="1">
          <mxGeometry relative="1" as="geometry" />
        </mxCell>
        <mxCell id="Xvyv53QH8Qv-foMU50Eb-30" style="edgeStyle=orthogonalEdgeStyle;rounded=0;orthogonalLoop=1;jettySize=auto;html=1;exitX=1;exitY=0.25;exitDx=0;exitDy=0;entryX=0;entryY=0.5;entryDx=0;entryDy=0;" parent="1" source="Xvyv53QH8Qv-foMU50Eb-22" target="Xvyv53QH8Qv-foMU50Eb-24" edge="1">
          <mxGeometry relative="1" as="geometry" />
        </mxCell>
        <mxCell id="Xvyv53QH8Qv-foMU50Eb-22" value="复印状态" style="swimlane;childLayout=stackLayout;horizontal=1;startSize=20;horizontalStack=0;rounded=1;fontSize=14;fontStyle=0;strokeWidth=2;resizeParent=0;resizeLast=1;shadow=0;dashed=0;align=center;arcSize=4;whiteSpace=wrap;html=1;" parent="1" vertex="1">
          <mxGeometry x="215" y="810" width="95" height="80" as="geometry" />
        </mxCell>
        <mxCell id="Xvyv53QH8Qv-foMU50Eb-23" value="核对储户密码" style="text;html=1;align=center;verticalAlign=middle;resizable=0;points=[];autosize=1;strokeColor=none;fillColor=none;" parent="Xvyv53QH8Qv-foMU50Eb-22" vertex="1">
          <mxGeometry y="20" width="95" height="60" as="geometry" />
        </mxCell>
        <mxCell id="Xvyv53QH8Qv-foMU50Eb-24" value="卡纸状态" style="swimlane;childLayout=stackLayout;horizontal=1;startSize=20;horizontalStack=0;rounded=1;fontSize=14;fontStyle=0;strokeWidth=2;resizeParent=0;resizeLast=1;shadow=0;dashed=0;align=center;arcSize=4;whiteSpace=wrap;html=1;" parent="1" vertex="1">
          <mxGeometry x="420" y="740" width="95" height="80" as="geometry" />
        </mxCell>
        <mxCell id="Xvyv53QH8Qv-foMU50Eb-25" value="核对储户密码" style="text;html=1;align=center;verticalAlign=middle;resizable=0;points=[];autosize=1;strokeColor=none;fillColor=none;" parent="Xvyv53QH8Qv-foMU50Eb-24" vertex="1">
          <mxGeometry y="20" width="95" height="60" as="geometry" />
        </mxCell>
        <mxCell id="Xvyv53QH8Qv-foMU50Eb-26" value="缺纸状态" style="swimlane;childLayout=stackLayout;horizontal=1;startSize=20;horizontalStack=0;rounded=1;fontSize=14;fontStyle=0;strokeWidth=2;resizeParent=0;resizeLast=1;shadow=0;dashed=0;align=center;arcSize=4;whiteSpace=wrap;html=1;" parent="1" vertex="1">
          <mxGeometry x="420" y="900" width="95" height="80" as="geometry" />
        </mxCell>
        <mxCell id="Xvyv53QH8Qv-foMU50Eb-27" value="核对储户密码" style="text;html=1;align=center;verticalAlign=middle;resizable=0;points=[];autosize=1;strokeColor=none;fillColor=none;" parent="Xvyv53QH8Qv-foMU50Eb-26" vertex="1">
          <mxGeometry y="20" width="95" height="60" as="geometry" />
        </mxCell>
        <mxCell id="Xvyv53QH8Qv-foMU50Eb-28" style="edgeStyle=orthogonalEdgeStyle;rounded=0;orthogonalLoop=1;jettySize=auto;html=1;entryX=0.006;entryY=0.503;entryDx=0;entryDy=0;entryPerimeter=0;" parent="1" source="Xvyv53QH8Qv-foMU50Eb-18" target="Xvyv53QH8Qv-foMU50Eb-23" edge="1">
          <mxGeometry relative="1" as="geometry" />
        </mxCell>
        <mxCell id="Xvyv53QH8Qv-foMU50Eb-31" style="edgeStyle=orthogonalEdgeStyle;rounded=0;orthogonalLoop=1;jettySize=auto;html=1;entryX=0;entryY=0.5;entryDx=0;entryDy=0;entryPerimeter=0;" parent="1" source="Xvyv53QH8Qv-foMU50Eb-23" target="Xvyv53QH8Qv-foMU50Eb-27" edge="1">
          <mxGeometry relative="1" as="geometry">
            <Array as="points">
              <mxPoint x="365" y="880" />
              <mxPoint x="365" y="950" />
            </Array>
          </mxGeometry>
        </mxCell>
        <mxCell id="Xvyv53QH8Qv-foMU50Eb-32" value="接收到复印命令" style="text;html=1;align=center;verticalAlign=middle;resizable=0;points=[];autosize=1;strokeColor=none;fillColor=none;" parent="1" vertex="1">
          <mxGeometry x="75" y="870" width="110" height="30" as="geometry" />
        </mxCell>
        <mxCell id="Xvyv53QH8Qv-foMU50Eb-34" value="完成复印" style="text;html=1;align=center;verticalAlign=middle;resizable=0;points=[];autosize=1;strokeColor=none;fillColor=none;" parent="1" vertex="1">
          <mxGeometry x="95" y="820" width="70" height="30" as="geometry" />
        </mxCell>
        <mxCell id="Xvyv53QH8Qv-foMU50Eb-35" value="缺纸" style="text;html=1;align=center;verticalAlign=middle;resizable=0;points=[];autosize=1;strokeColor=none;fillColor=none;" parent="1" vertex="1">
          <mxGeometry x="315" y="900" width="50" height="30" as="geometry" />
        </mxCell>
        <mxCell id="sv1Xg_vHDDvIGjIzICGi-2" value="银行系统" style="rounded=1;whiteSpace=wrap;html=1;" parent="1" vertex="1">
          <mxGeometry x="-715" y="120" width="120" height="60" as="geometry" />
        </mxCell>
        <mxCell id="sv1Xg_vHDDvIGjIzICGi-3" value="接收输入数据" style="rounded=1;whiteSpace=wrap;html=1;" parent="1" vertex="1">
          <mxGeometry x="-975" y="240" width="90" height="40" as="geometry" />
        </mxCell>
        <mxCell id="sv1Xg_vHDDvIGjIzICGi-4" value="存款单" style="rounded=1;whiteSpace=wrap;html=1;" parent="1" vertex="1">
          <mxGeometry x="-1065" y="325" width="90" height="40" as="geometry" />
        </mxCell>
        <mxCell id="sv1Xg_vHDDvIGjIzICGi-5" value="取款单" style="rounded=1;whiteSpace=wrap;html=1;" parent="1" vertex="1">
          <mxGeometry x="-897.5" y="325" width="95" height="40" as="geometry" />
        </mxCell>
        <mxCell id="sv1Xg_vHDDvIGjIzICGi-7" value="储户填写存款所需信息" style="rounded=1;whiteSpace=wrap;html=1;" parent="1" vertex="1">
          <mxGeometry x="-1090" y="390" width="140" height="50" as="geometry" />
        </mxCell>
        <mxCell id="sv1Xg_vHDDvIGjIzICGi-8" value="储户填写取款所需信息" style="rounded=1;whiteSpace=wrap;html=1;" parent="1" vertex="1">
          <mxGeometry x="-915" y="390" width="130" height="50" as="geometry" />
        </mxCell>
        <mxCell id="sv1Xg_vHDDvIGjIzICGi-9" value="数据转换控制" style="rounded=1;whiteSpace=wrap;html=1;" parent="1" vertex="1">
          <mxGeometry x="-702.5" y="240" width="95" height="45" as="geometry" />
        </mxCell>
        <mxCell id="sv1Xg_vHDDvIGjIzICGi-10" value="生成存款信息" style="rounded=1;whiteSpace=wrap;html=1;" parent="1" vertex="1">
          <mxGeometry x="-770" y="330" width="100" height="40" as="geometry" />
        </mxCell>
        <mxCell id="sv1Xg_vHDDvIGjIzICGi-12" value="核对密码" style="rounded=1;whiteSpace=wrap;html=1;" parent="1" vertex="1">
          <mxGeometry x="-650" y="330" width="110" height="40" as="geometry" />
        </mxCell>
        <mxCell id="sv1Xg_vHDDvIGjIzICGi-13" value="计算利息" style="rounded=1;whiteSpace=wrap;html=1;" parent="1" vertex="1">
          <mxGeometry x="-644.37" y="395" width="98.75" height="45" as="geometry" />
        </mxCell>
        <mxCell id="sv1Xg_vHDDvIGjIzICGi-16" value="输出打印控制" style="rounded=1;whiteSpace=wrap;html=1;" parent="1" vertex="1">
          <mxGeometry x="-450" y="240" width="90" height="45" as="geometry" />
        </mxCell>
        <mxCell id="sv1Xg_vHDDvIGjIzICGi-17" value="打印存款单据" style="rounded=1;whiteSpace=wrap;html=1;" parent="1" vertex="1">
          <mxGeometry x="-520" y="330" width="100" height="35" as="geometry" />
        </mxCell>
        <mxCell id="sv1Xg_vHDDvIGjIzICGi-18" value="打印利息清单" style="rounded=1;whiteSpace=wrap;html=1;" parent="1" vertex="1">
          <mxGeometry x="-390" y="330" width="100" height="35" as="geometry" />
        </mxCell>
        <mxCell id="sv1Xg_vHDDvIGjIzICGi-20" value="" style="endArrow=none;html=1;rounded=0;entryX=0.25;entryY=1;entryDx=0;entryDy=0;exitX=0.5;exitY=0;exitDx=0;exitDy=0;" parent="1" source="sv1Xg_vHDDvIGjIzICGi-4" target="sv1Xg_vHDDvIGjIzICGi-3" edge="1">
          <mxGeometry width="50" height="50" relative="1" as="geometry">
            <mxPoint x="-1085" y="667.5" as="sourcePoint" />
            <mxPoint x="-1035" y="617.5" as="targetPoint" />
          </mxGeometry>
        </mxCell>
        <mxCell id="sv1Xg_vHDDvIGjIzICGi-21" value="" style="endArrow=none;html=1;rounded=0;entryX=0.5;entryY=1;entryDx=0;entryDy=0;exitX=0.5;exitY=0;exitDx=0;exitDy=0;exitPerimeter=0;" parent="1" source="sv1Xg_vHDDvIGjIzICGi-7" target="sv1Xg_vHDDvIGjIzICGi-4" edge="1">
          <mxGeometry width="50" height="50" relative="1" as="geometry">
            <mxPoint x="-1120" y="600" as="sourcePoint" />
            <mxPoint x="-1070" y="550" as="targetPoint" />
          </mxGeometry>
        </mxCell>
        <mxCell id="sv1Xg_vHDDvIGjIzICGi-22" value="" style="endArrow=none;html=1;rounded=0;entryX=0.75;entryY=1;entryDx=0;entryDy=0;exitX=0.5;exitY=0;exitDx=0;exitDy=0;" parent="1" source="sv1Xg_vHDDvIGjIzICGi-5" target="sv1Xg_vHDDvIGjIzICGi-3" edge="1">
          <mxGeometry width="50" height="50" relative="1" as="geometry">
            <mxPoint x="-1065" y="687.5" as="sourcePoint" />
            <mxPoint x="-1015" y="637.5" as="targetPoint" />
          </mxGeometry>
        </mxCell>
        <mxCell id="sv1Xg_vHDDvIGjIzICGi-23" value="" style="endArrow=none;html=1;rounded=0;entryX=0.5;entryY=1;entryDx=0;entryDy=0;exitX=0.5;exitY=0;exitDx=0;exitDy=0;" parent="1" source="sv1Xg_vHDDvIGjIzICGi-8" target="sv1Xg_vHDDvIGjIzICGi-5" edge="1">
          <mxGeometry width="50" height="50" relative="1" as="geometry">
            <mxPoint x="-1060" y="660" as="sourcePoint" />
            <mxPoint x="-1010" y="610" as="targetPoint" />
          </mxGeometry>
        </mxCell>
        <mxCell id="sv1Xg_vHDDvIGjIzICGi-24" value="" style="endArrow=none;html=1;rounded=0;entryX=0.25;entryY=1;entryDx=0;entryDy=0;exitX=0.5;exitY=0;exitDx=0;exitDy=0;" parent="1" source="sv1Xg_vHDDvIGjIzICGi-3" target="sv1Xg_vHDDvIGjIzICGi-2" edge="1">
          <mxGeometry width="50" height="50" relative="1" as="geometry">
            <mxPoint x="-1110" y="790" as="sourcePoint" />
            <mxPoint x="-1060" y="740" as="targetPoint" />
          </mxGeometry>
        </mxCell>
        <mxCell id="sv1Xg_vHDDvIGjIzICGi-25" value="" style="endArrow=none;html=1;rounded=0;entryX=0.5;entryY=1;entryDx=0;entryDy=0;exitX=0.5;exitY=0;exitDx=0;exitDy=0;" parent="1" source="sv1Xg_vHDDvIGjIzICGi-9" target="sv1Xg_vHDDvIGjIzICGi-2" edge="1">
          <mxGeometry width="50" height="50" relative="1" as="geometry">
            <mxPoint x="-1100" y="800" as="sourcePoint" />
            <mxPoint x="-1050" y="750" as="targetPoint" />
          </mxGeometry>
        </mxCell>
        <mxCell id="sv1Xg_vHDDvIGjIzICGi-26" value="" style="endArrow=none;html=1;rounded=0;entryX=0.25;entryY=1;entryDx=0;entryDy=0;exitX=0.5;exitY=0;exitDx=0;exitDy=0;" parent="1" source="sv1Xg_vHDDvIGjIzICGi-10" target="sv1Xg_vHDDvIGjIzICGi-9" edge="1">
          <mxGeometry width="50" height="50" relative="1" as="geometry">
            <mxPoint x="-1090" y="810" as="sourcePoint" />
            <mxPoint x="-1040" y="760" as="targetPoint" />
          </mxGeometry>
        </mxCell>
        <mxCell id="sv1Xg_vHDDvIGjIzICGi-27" value="" style="endArrow=none;html=1;rounded=0;entryX=0.75;entryY=1;entryDx=0;entryDy=0;exitX=0.5;exitY=0;exitDx=0;exitDy=0;" parent="1" source="sv1Xg_vHDDvIGjIzICGi-12" target="sv1Xg_vHDDvIGjIzICGi-9" edge="1">
          <mxGeometry width="50" height="50" relative="1" as="geometry">
            <mxPoint x="-1080" y="820" as="sourcePoint" />
            <mxPoint x="-1030" y="770" as="targetPoint" />
          </mxGeometry>
        </mxCell>
        <mxCell id="sv1Xg_vHDDvIGjIzICGi-28" value="" style="endArrow=none;html=1;rounded=0;entryX=0.5;entryY=1;entryDx=0;entryDy=0;exitX=0.5;exitY=0;exitDx=0;exitDy=0;" parent="1" source="sv1Xg_vHDDvIGjIzICGi-13" target="sv1Xg_vHDDvIGjIzICGi-12" edge="1">
          <mxGeometry width="50" height="50" relative="1" as="geometry">
            <mxPoint x="-1115" y="700" as="sourcePoint" />
            <mxPoint x="-1065" y="650" as="targetPoint" />
          </mxGeometry>
        </mxCell>
        <mxCell id="sv1Xg_vHDDvIGjIzICGi-31" value="" style="endArrow=none;html=1;rounded=0;entryX=0.75;entryY=1;entryDx=0;entryDy=0;exitX=0.5;exitY=0;exitDx=0;exitDy=0;" parent="1" source="sv1Xg_vHDDvIGjIzICGi-16" target="sv1Xg_vHDDvIGjIzICGi-2" edge="1">
          <mxGeometry width="50" height="50" relative="1" as="geometry">
            <mxPoint x="-1105" y="710" as="sourcePoint" />
            <mxPoint x="-1055" y="660" as="targetPoint" />
          </mxGeometry>
        </mxCell>
        <mxCell id="sv1Xg_vHDDvIGjIzICGi-33" value="" style="endArrow=none;html=1;rounded=0;entryX=0.75;entryY=1;entryDx=0;entryDy=0;exitX=0.5;exitY=0;exitDx=0;exitDy=0;" parent="1" source="sv1Xg_vHDDvIGjIzICGi-18" target="sv1Xg_vHDDvIGjIzICGi-16" edge="1">
          <mxGeometry width="50" height="50" relative="1" as="geometry">
            <mxPoint x="-1095" y="730" as="sourcePoint" />
            <mxPoint x="-1045" y="680" as="targetPoint" />
          </mxGeometry>
        </mxCell>
        <mxCell id="sv1Xg_vHDDvIGjIzICGi-34" value="" style="endArrow=none;html=1;rounded=0;entryX=0.25;entryY=1;entryDx=0;entryDy=0;exitX=0.5;exitY=0;exitDx=0;exitDy=0;" parent="1" source="sv1Xg_vHDDvIGjIzICGi-17" target="sv1Xg_vHDDvIGjIzICGi-16" edge="1">
          <mxGeometry width="50" height="50" relative="1" as="geometry">
            <mxPoint x="-1085" y="740" as="sourcePoint" />
            <mxPoint x="-1035" y="690" as="targetPoint" />
          </mxGeometry>
        </mxCell>
        <mxCell id="FmWVzvf0NhfrxBf0VVzR-9" style="edgeStyle=orthogonalEdgeStyle;rounded=0;orthogonalLoop=1;jettySize=auto;html=1;exitX=0.5;exitY=1;exitDx=0;exitDy=0;entryX=0.5;entryY=0;entryDx=0;entryDy=0;" edge="1" parent="1" source="FmWVzvf0NhfrxBf0VVzR-2" target="FmWVzvf0NhfrxBf0VVzR-7">
          <mxGeometry relative="1" as="geometry" />
        </mxCell>
        <mxCell id="FmWVzvf0NhfrxBf0VVzR-2" value="I=(START+FINISH)/2" style="rounded=0;whiteSpace=wrap;html=1;" vertex="1" parent="1">
          <mxGeometry x="-970" y="600" width="120" height="40" as="geometry" />
        </mxCell>
        <mxCell id="FmWVzvf0NhfrxBf0VVzR-4" style="edgeStyle=orthogonalEdgeStyle;rounded=0;orthogonalLoop=1;jettySize=auto;html=1;exitX=0.5;exitY=1;exitDx=0;exitDy=0;entryX=0.5;entryY=0;entryDx=0;entryDy=0;" edge="1" parent="1" source="FmWVzvf0NhfrxBf0VVzR-3" target="FmWVzvf0NhfrxBf0VVzR-2">
          <mxGeometry relative="1" as="geometry" />
        </mxCell>
        <mxCell id="FmWVzvf0NhfrxBf0VVzR-3" value="开始" style="ellipse;whiteSpace=wrap;html=1;" vertex="1" parent="1">
          <mxGeometry x="-951.25" y="510" width="82.5" height="50" as="geometry" />
        </mxCell>
        <mxCell id="FmWVzvf0NhfrxBf0VVzR-10" style="edgeStyle=orthogonalEdgeStyle;rounded=0;orthogonalLoop=1;jettySize=auto;html=1;exitX=0;exitY=0.5;exitDx=0;exitDy=0;entryX=0;entryY=0.5;entryDx=0;entryDy=0;" edge="1" parent="1" source="FmWVzvf0NhfrxBf0VVzR-7" target="FmWVzvf0NhfrxBf0VVzR-8">
          <mxGeometry relative="1" as="geometry">
            <Array as="points">
              <mxPoint x="-1040" y="690" />
              <mxPoint x="-1040" y="1265" />
            </Array>
          </mxGeometry>
        </mxCell>
        <mxCell id="FmWVzvf0NhfrxBf0VVzR-12" style="edgeStyle=orthogonalEdgeStyle;rounded=0;orthogonalLoop=1;jettySize=auto;html=1;exitX=1;exitY=0.5;exitDx=0;exitDy=0;entryX=0.5;entryY=0;entryDx=0;entryDy=0;" edge="1" parent="1" source="FmWVzvf0NhfrxBf0VVzR-7" target="FmWVzvf0NhfrxBf0VVzR-11">
          <mxGeometry relative="1" as="geometry" />
        </mxCell>
        <mxCell id="FmWVzvf0NhfrxBf0VVzR-7" value="TABLE[I]==ITEM" style="rhombus;whiteSpace=wrap;html=1;" vertex="1" parent="1">
          <mxGeometry x="-977.5" y="660" width="135" height="60" as="geometry" />
        </mxCell>
        <mxCell id="FmWVzvf0NhfrxBf0VVzR-32" style="edgeStyle=orthogonalEdgeStyle;rounded=0;orthogonalLoop=1;jettySize=auto;html=1;exitX=0.5;exitY=1;exitDx=0;exitDy=0;entryX=0.5;entryY=0;entryDx=0;entryDy=0;" edge="1" parent="1" source="FmWVzvf0NhfrxBf0VVzR-8" target="FmWVzvf0NhfrxBf0VVzR-31">
          <mxGeometry relative="1" as="geometry" />
        </mxCell>
        <mxCell id="FmWVzvf0NhfrxBf0VVzR-8" value="FLAG=1" style="rounded=0;whiteSpace=wrap;html=1;" vertex="1" parent="1">
          <mxGeometry x="-940" y="1250" width="82.5" height="30" as="geometry" />
        </mxCell>
        <mxCell id="FmWVzvf0NhfrxBf0VVzR-71" style="edgeStyle=orthogonalEdgeStyle;rounded=0;orthogonalLoop=1;jettySize=auto;html=1;exitX=1;exitY=0.5;exitDx=0;exitDy=0;" edge="1" parent="1" source="FmWVzvf0NhfrxBf0VVzR-11" target="FmWVzvf0NhfrxBf0VVzR-13">
          <mxGeometry relative="1" as="geometry" />
        </mxCell>
        <mxCell id="FmWVzvf0NhfrxBf0VVzR-73" style="edgeStyle=orthogonalEdgeStyle;rounded=0;orthogonalLoop=1;jettySize=auto;html=1;exitX=0.5;exitY=1;exitDx=0;exitDy=0;entryX=0.5;entryY=0;entryDx=0;entryDy=0;" edge="1" parent="1" source="FmWVzvf0NhfrxBf0VVzR-11" target="FmWVzvf0NhfrxBf0VVzR-15">
          <mxGeometry relative="1" as="geometry" />
        </mxCell>
        <mxCell id="FmWVzvf0NhfrxBf0VVzR-11" value="TABLE[I]&amp;lt;ITEM" style="rhombus;whiteSpace=wrap;html=1;" vertex="1" parent="1">
          <mxGeometry x="-835.25" y="730" width="127.5" height="60" as="geometry" />
        </mxCell>
        <mxCell id="FmWVzvf0NhfrxBf0VVzR-74" style="edgeStyle=orthogonalEdgeStyle;rounded=0;orthogonalLoop=1;jettySize=auto;html=1;exitX=0.5;exitY=1;exitDx=0;exitDy=0;entryX=0.5;entryY=0;entryDx=0;entryDy=0;" edge="1" parent="1" source="FmWVzvf0NhfrxBf0VVzR-13" target="FmWVzvf0NhfrxBf0VVzR-15">
          <mxGeometry relative="1" as="geometry" />
        </mxCell>
        <mxCell id="FmWVzvf0NhfrxBf0VVzR-13" value="START=I+1" style="rounded=0;whiteSpace=wrap;html=1;" vertex="1" parent="1">
          <mxGeometry x="-700.5" y="795" width="97.5" height="35" as="geometry" />
        </mxCell>
        <mxCell id="FmWVzvf0NhfrxBf0VVzR-75" style="edgeStyle=orthogonalEdgeStyle;rounded=0;orthogonalLoop=1;jettySize=auto;html=1;exitX=0.5;exitY=1;exitDx=0;exitDy=0;entryX=0.5;entryY=0;entryDx=0;entryDy=0;" edge="1" parent="1" source="FmWVzvf0NhfrxBf0VVzR-15" target="FmWVzvf0NhfrxBf0VVzR-20">
          <mxGeometry relative="1" as="geometry" />
        </mxCell>
        <mxCell id="FmWVzvf0NhfrxBf0VVzR-76" style="edgeStyle=orthogonalEdgeStyle;rounded=0;orthogonalLoop=1;jettySize=auto;html=1;exitX=1;exitY=0.5;exitDx=0;exitDy=0;entryX=0.5;entryY=0;entryDx=0;entryDy=0;" edge="1" parent="1" source="FmWVzvf0NhfrxBf0VVzR-15" target="FmWVzvf0NhfrxBf0VVzR-17">
          <mxGeometry relative="1" as="geometry" />
        </mxCell>
        <mxCell id="FmWVzvf0NhfrxBf0VVzR-15" value="TABLE[I]&amp;gt;ITEM" style="rhombus;whiteSpace=wrap;html=1;" vertex="1" parent="1">
          <mxGeometry x="-831.5" y="870" width="120" height="60" as="geometry" />
        </mxCell>
        <mxCell id="FmWVzvf0NhfrxBf0VVzR-78" style="edgeStyle=orthogonalEdgeStyle;rounded=0;orthogonalLoop=1;jettySize=auto;html=1;exitX=0.5;exitY=1;exitDx=0;exitDy=0;entryX=0.5;entryY=0;entryDx=0;entryDy=0;" edge="1" parent="1" source="FmWVzvf0NhfrxBf0VVzR-17" target="FmWVzvf0NhfrxBf0VVzR-20">
          <mxGeometry relative="1" as="geometry" />
        </mxCell>
        <mxCell id="FmWVzvf0NhfrxBf0VVzR-17" value="FINISH=I-1" style="rounded=0;whiteSpace=wrap;html=1;" vertex="1" parent="1">
          <mxGeometry x="-700.5" y="930" width="97.5" height="30" as="geometry" />
        </mxCell>
        <mxCell id="FmWVzvf0NhfrxBf0VVzR-22" style="edgeStyle=orthogonalEdgeStyle;rounded=0;orthogonalLoop=1;jettySize=auto;html=1;exitX=1;exitY=0.5;exitDx=0;exitDy=0;" edge="1" parent="1" source="FmWVzvf0NhfrxBf0VVzR-20">
          <mxGeometry relative="1" as="geometry">
            <mxPoint x="-910" y="580" as="targetPoint" />
            <Array as="points">
              <mxPoint x="-470" y="1030" />
              <mxPoint x="-470" y="580" />
            </Array>
          </mxGeometry>
        </mxCell>
        <mxCell id="FmWVzvf0NhfrxBf0VVzR-24" style="edgeStyle=orthogonalEdgeStyle;rounded=0;orthogonalLoop=1;jettySize=auto;html=1;exitX=0.5;exitY=1;exitDx=0;exitDy=0;entryX=0.5;entryY=0;entryDx=0;entryDy=0;" edge="1" parent="1" source="FmWVzvf0NhfrxBf0VVzR-20" target="FmWVzvf0NhfrxBf0VVzR-23">
          <mxGeometry relative="1" as="geometry" />
        </mxCell>
        <mxCell id="FmWVzvf0NhfrxBf0VVzR-20" value="FINISH-START&amp;gt;1" style="rhombus;whiteSpace=wrap;html=1;" vertex="1" parent="1">
          <mxGeometry x="-842.5" y="1000" width="142" height="60" as="geometry" />
        </mxCell>
        <mxCell id="FmWVzvf0NhfrxBf0VVzR-25" style="edgeStyle=orthogonalEdgeStyle;rounded=0;orthogonalLoop=1;jettySize=auto;html=1;exitX=0;exitY=0.5;exitDx=0;exitDy=0;entryX=0.5;entryY=0;entryDx=0;entryDy=0;" edge="1" parent="1" source="FmWVzvf0NhfrxBf0VVzR-23" target="FmWVzvf0NhfrxBf0VVzR-8">
          <mxGeometry relative="1" as="geometry" />
        </mxCell>
        <mxCell id="FmWVzvf0NhfrxBf0VVzR-27" style="edgeStyle=orthogonalEdgeStyle;rounded=0;orthogonalLoop=1;jettySize=auto;html=1;exitX=0.5;exitY=1;exitDx=0;exitDy=0;entryX=0.5;entryY=0;entryDx=0;entryDy=0;" edge="1" parent="1" source="FmWVzvf0NhfrxBf0VVzR-23" target="FmWVzvf0NhfrxBf0VVzR-26">
          <mxGeometry relative="1" as="geometry" />
        </mxCell>
        <mxCell id="FmWVzvf0NhfrxBf0VVzR-23" value="TABLE[START]==ITEM" style="rhombus;whiteSpace=wrap;html=1;" vertex="1" parent="1">
          <mxGeometry x="-847.75" y="1080" width="152.5" height="60" as="geometry" />
        </mxCell>
        <mxCell id="FmWVzvf0NhfrxBf0VVzR-28" style="edgeStyle=orthogonalEdgeStyle;rounded=0;orthogonalLoop=1;jettySize=auto;html=1;exitX=0;exitY=0.5;exitDx=0;exitDy=0;entryX=0.5;entryY=0;entryDx=0;entryDy=0;" edge="1" parent="1" source="FmWVzvf0NhfrxBf0VVzR-26" target="FmWVzvf0NhfrxBf0VVzR-8">
          <mxGeometry relative="1" as="geometry" />
        </mxCell>
        <mxCell id="FmWVzvf0NhfrxBf0VVzR-30" style="edgeStyle=orthogonalEdgeStyle;rounded=0;orthogonalLoop=1;jettySize=auto;html=1;exitX=0.5;exitY=1;exitDx=0;exitDy=0;entryX=0.5;entryY=0;entryDx=0;entryDy=0;" edge="1" parent="1" source="FmWVzvf0NhfrxBf0VVzR-26" target="FmWVzvf0NhfrxBf0VVzR-29">
          <mxGeometry relative="1" as="geometry" />
        </mxCell>
        <mxCell id="FmWVzvf0NhfrxBf0VVzR-26" value="TABLE[FINISH]==ITEM" style="rhombus;whiteSpace=wrap;html=1;" vertex="1" parent="1">
          <mxGeometry x="-852.75" y="1160" width="162.5" height="70" as="geometry" />
        </mxCell>
        <mxCell id="FmWVzvf0NhfrxBf0VVzR-33" style="edgeStyle=orthogonalEdgeStyle;rounded=0;orthogonalLoop=1;jettySize=auto;html=1;exitX=0.5;exitY=1;exitDx=0;exitDy=0;entryX=0.5;entryY=0;entryDx=0;entryDy=0;" edge="1" parent="1" source="FmWVzvf0NhfrxBf0VVzR-29" target="FmWVzvf0NhfrxBf0VVzR-31">
          <mxGeometry relative="1" as="geometry" />
        </mxCell>
        <mxCell id="FmWVzvf0NhfrxBf0VVzR-29" value="FLAG=0" style="rounded=0;whiteSpace=wrap;html=1;" vertex="1" parent="1">
          <mxGeometry x="-820.75" y="1250" width="98.5" height="30" as="geometry" />
        </mxCell>
        <mxCell id="FmWVzvf0NhfrxBf0VVzR-31" value="结束" style="ellipse;whiteSpace=wrap;html=1;" vertex="1" parent="1">
          <mxGeometry x="-811.5" y="1340" width="80" height="50" as="geometry" />
        </mxCell>
        <mxCell id="FmWVzvf0NhfrxBf0VVzR-52" style="edgeStyle=orthogonalEdgeStyle;rounded=0;orthogonalLoop=1;jettySize=auto;html=1;exitX=0.5;exitY=1;exitDx=0;exitDy=0;entryX=0.5;entryY=0;entryDx=0;entryDy=0;" edge="1" parent="1" source="FmWVzvf0NhfrxBf0VVzR-34" target="FmWVzvf0NhfrxBf0VVzR-35">
          <mxGeometry relative="1" as="geometry" />
        </mxCell>
        <mxCell id="FmWVzvf0NhfrxBf0VVzR-34" value="开始" style="ellipse;whiteSpace=wrap;html=1;" vertex="1" parent="1">
          <mxGeometry x="-1430" y="520" width="80" height="50" as="geometry" />
        </mxCell>
        <mxCell id="FmWVzvf0NhfrxBf0VVzR-53" style="edgeStyle=orthogonalEdgeStyle;rounded=0;orthogonalLoop=1;jettySize=auto;html=1;exitX=0.5;exitY=1;exitDx=0;exitDy=0;entryX=0.5;entryY=0;entryDx=0;entryDy=0;" edge="1" parent="1" source="FmWVzvf0NhfrxBf0VVzR-35" target="FmWVzvf0NhfrxBf0VVzR-44">
          <mxGeometry relative="1" as="geometry" />
        </mxCell>
        <mxCell id="FmWVzvf0NhfrxBf0VVzR-35" value="flag=0" style="rounded=0;whiteSpace=wrap;html=1;" vertex="1" parent="1">
          <mxGeometry x="-1430" y="590" width="80" height="30" as="geometry" />
        </mxCell>
        <mxCell id="FmWVzvf0NhfrxBf0VVzR-39" value="flag=0" style="rounded=0;whiteSpace=wrap;html=1;" vertex="1" parent="1">
          <mxGeometry x="-1480" y="345" width="80" height="40" as="geometry" />
        </mxCell>
        <mxCell id="FmWVzvf0NhfrxBf0VVzR-40" value="flag=0" style="rounded=0;whiteSpace=wrap;html=1;" vertex="1" parent="1">
          <mxGeometry x="-1360" y="370" width="80" height="40" as="geometry" />
        </mxCell>
        <mxCell id="FmWVzvf0NhfrxBf0VVzR-41" value="flag=0" style="rounded=0;whiteSpace=wrap;html=1;" vertex="1" parent="1">
          <mxGeometry x="-1260" y="330" width="80" height="40" as="geometry" />
        </mxCell>
        <mxCell id="FmWVzvf0NhfrxBf0VVzR-42" value="flag=0" style="rounded=0;whiteSpace=wrap;html=1;" vertex="1" parent="1">
          <mxGeometry x="-1400" y="310" width="80" height="40" as="geometry" />
        </mxCell>
        <mxCell id="FmWVzvf0NhfrxBf0VVzR-54" style="edgeStyle=orthogonalEdgeStyle;rounded=0;orthogonalLoop=1;jettySize=auto;html=1;exitX=0.5;exitY=1;exitDx=0;exitDy=0;entryX=0.5;entryY=0;entryDx=0;entryDy=0;" edge="1" parent="1" source="FmWVzvf0NhfrxBf0VVzR-44" target="FmWVzvf0NhfrxBf0VVzR-45">
          <mxGeometry relative="1" as="geometry" />
        </mxCell>
        <mxCell id="FmWVzvf0NhfrxBf0VVzR-66" style="edgeStyle=orthogonalEdgeStyle;rounded=0;orthogonalLoop=1;jettySize=auto;html=1;exitX=1;exitY=0.5;exitDx=0;exitDy=0;entryX=0.5;entryY=0;entryDx=0;entryDy=0;" edge="1" parent="1" source="FmWVzvf0NhfrxBf0VVzR-44" target="FmWVzvf0NhfrxBf0VVzR-62">
          <mxGeometry relative="1" as="geometry">
            <mxPoint x="-1100" y="860" as="targetPoint" />
            <Array as="points">
              <mxPoint x="-1140" y="675" />
              <mxPoint x="-1140" y="960" />
              <mxPoint x="-1388" y="960" />
            </Array>
          </mxGeometry>
        </mxCell>
        <mxCell id="FmWVzvf0NhfrxBf0VVzR-44" value="start&amp;lt;=finsh" style="rhombus;whiteSpace=wrap;html=1;" vertex="1" parent="1">
          <mxGeometry x="-1462.5" y="650" width="145" height="50" as="geometry" />
        </mxCell>
        <mxCell id="FmWVzvf0NhfrxBf0VVzR-55" style="edgeStyle=orthogonalEdgeStyle;rounded=0;orthogonalLoop=1;jettySize=auto;html=1;exitX=0.5;exitY=1;exitDx=0;exitDy=0;entryX=0.5;entryY=0;entryDx=0;entryDy=0;" edge="1" parent="1" source="FmWVzvf0NhfrxBf0VVzR-45" target="FmWVzvf0NhfrxBf0VVzR-46">
          <mxGeometry relative="1" as="geometry" />
        </mxCell>
        <mxCell id="FmWVzvf0NhfrxBf0VVzR-45" value="mid=(start+finish)/2" style="rounded=0;whiteSpace=wrap;html=1;" vertex="1" parent="1">
          <mxGeometry x="-1450" y="720" width="120" height="40" as="geometry" />
        </mxCell>
        <mxCell id="FmWVzvf0NhfrxBf0VVzR-60" style="edgeStyle=orthogonalEdgeStyle;rounded=0;orthogonalLoop=1;jettySize=auto;html=1;exitX=1;exitY=0.5;exitDx=0;exitDy=0;entryX=0.5;entryY=0;entryDx=0;entryDy=0;" edge="1" parent="1" source="FmWVzvf0NhfrxBf0VVzR-46" target="FmWVzvf0NhfrxBf0VVzR-47">
          <mxGeometry relative="1" as="geometry" />
        </mxCell>
        <mxCell id="FmWVzvf0NhfrxBf0VVzR-61" style="edgeStyle=orthogonalEdgeStyle;rounded=0;orthogonalLoop=1;jettySize=auto;html=1;exitX=0;exitY=0.5;exitDx=0;exitDy=0;entryX=0.5;entryY=0;entryDx=0;entryDy=0;" edge="1" parent="1" source="FmWVzvf0NhfrxBf0VVzR-46" target="FmWVzvf0NhfrxBf0VVzR-49">
          <mxGeometry relative="1" as="geometry" />
        </mxCell>
        <mxCell id="FmWVzvf0NhfrxBf0VVzR-46" value="arr[mid]==item" style="rhombus;whiteSpace=wrap;html=1;" vertex="1" parent="1">
          <mxGeometry x="-1452.5" y="780" width="125" height="50" as="geometry" />
        </mxCell>
        <mxCell id="FmWVzvf0NhfrxBf0VVzR-63" style="edgeStyle=orthogonalEdgeStyle;rounded=0;orthogonalLoop=1;jettySize=auto;html=1;exitX=0.5;exitY=1;exitDx=0;exitDy=0;entryX=0.5;entryY=0;entryDx=0;entryDy=0;" edge="1" parent="1" source="FmWVzvf0NhfrxBf0VVzR-47" target="FmWVzvf0NhfrxBf0VVzR-62">
          <mxGeometry relative="1" as="geometry">
            <Array as="points">
              <mxPoint x="-1220" y="960" />
              <mxPoint x="-1388" y="960" />
            </Array>
          </mxGeometry>
        </mxCell>
        <mxCell id="FmWVzvf0NhfrxBf0VVzR-47" value="flag=1" style="rounded=0;whiteSpace=wrap;html=1;" vertex="1" parent="1">
          <mxGeometry x="-1265" y="850" width="90" height="30" as="geometry" />
        </mxCell>
        <mxCell id="FmWVzvf0NhfrxBf0VVzR-58" style="edgeStyle=orthogonalEdgeStyle;rounded=0;orthogonalLoop=1;jettySize=auto;html=1;exitX=0;exitY=0.5;exitDx=0;exitDy=0;entryX=0.5;entryY=0;entryDx=0;entryDy=0;" edge="1" parent="1" source="FmWVzvf0NhfrxBf0VVzR-49" target="FmWVzvf0NhfrxBf0VVzR-50">
          <mxGeometry relative="1" as="geometry" />
        </mxCell>
        <mxCell id="FmWVzvf0NhfrxBf0VVzR-59" style="edgeStyle=orthogonalEdgeStyle;rounded=0;orthogonalLoop=1;jettySize=auto;html=1;exitX=1;exitY=0.5;exitDx=0;exitDy=0;" edge="1" parent="1" source="FmWVzvf0NhfrxBf0VVzR-49" target="FmWVzvf0NhfrxBf0VVzR-51">
          <mxGeometry relative="1" as="geometry" />
        </mxCell>
        <mxCell id="FmWVzvf0NhfrxBf0VVzR-49" value="arr[mid]&amp;lt;item" style="rhombus;whiteSpace=wrap;html=1;" vertex="1" parent="1">
          <mxGeometry x="-1580" y="835" width="120" height="60" as="geometry" />
        </mxCell>
        <mxCell id="FmWVzvf0NhfrxBf0VVzR-64" style="edgeStyle=orthogonalEdgeStyle;rounded=0;orthogonalLoop=1;jettySize=auto;html=1;exitX=0.5;exitY=1;exitDx=0;exitDy=0;" edge="1" parent="1" source="FmWVzvf0NhfrxBf0VVzR-50">
          <mxGeometry relative="1" as="geometry">
            <mxPoint x="-1390" y="630" as="targetPoint" />
            <Array as="points">
              <mxPoint x="-1612" y="970" />
              <mxPoint x="-1680" y="970" />
              <mxPoint x="-1680" y="630" />
            </Array>
          </mxGeometry>
        </mxCell>
        <mxCell id="FmWVzvf0NhfrxBf0VVzR-50" value="start=mid+1" style="rounded=0;whiteSpace=wrap;html=1;" vertex="1" parent="1">
          <mxGeometry x="-1660" y="905" width="95" height="30" as="geometry" />
        </mxCell>
        <mxCell id="FmWVzvf0NhfrxBf0VVzR-65" style="edgeStyle=orthogonalEdgeStyle;rounded=0;orthogonalLoop=1;jettySize=auto;html=1;exitX=0.5;exitY=1;exitDx=0;exitDy=0;" edge="1" parent="1" source="FmWVzvf0NhfrxBf0VVzR-51">
          <mxGeometry relative="1" as="geometry">
            <mxPoint x="-1390" y="630" as="targetPoint" />
            <Array as="points">
              <mxPoint x="-1430" y="970" />
              <mxPoint x="-1680" y="970" />
              <mxPoint x="-1680" y="630" />
            </Array>
          </mxGeometry>
        </mxCell>
        <mxCell id="FmWVzvf0NhfrxBf0VVzR-51" value="finish=mid-1" style="rounded=0;whiteSpace=wrap;html=1;" vertex="1" parent="1">
          <mxGeometry x="-1480" y="905" width="100" height="30" as="geometry" />
        </mxCell>
        <mxCell id="FmWVzvf0NhfrxBf0VVzR-62" value="结束" style="ellipse;whiteSpace=wrap;html=1;" vertex="1" parent="1">
          <mxGeometry x="-1430" y="1030" width="83" height="50" as="geometry" />
        </mxCell>
        <mxCell id="FmWVzvf0NhfrxBf0VVzR-67" value="是" style="text;html=1;align=center;verticalAlign=middle;resizable=0;points=[];autosize=1;strokeColor=none;fillColor=none;" vertex="1" parent="1">
          <mxGeometry x="-1030" y="660" width="40" height="30" as="geometry" />
        </mxCell>
        <mxCell id="FmWVzvf0NhfrxBf0VVzR-68" value="否" style="text;html=1;align=center;verticalAlign=middle;resizable=0;points=[];autosize=1;strokeColor=none;fillColor=none;" vertex="1" parent="1">
          <mxGeometry x="-825" y="660" width="40" height="30" as="geometry" />
        </mxCell>
        <mxCell id="FmWVzvf0NhfrxBf0VVzR-72" value="是" style="text;html=1;align=center;verticalAlign=middle;resizable=0;points=[];autosize=1;strokeColor=none;fillColor=none;" vertex="1" parent="1">
          <mxGeometry x="-700.5" y="730" width="40" height="30" as="geometry" />
        </mxCell>
        <mxCell id="FmWVzvf0NhfrxBf0VVzR-77" value="是" style="text;html=1;align=center;verticalAlign=middle;resizable=0;points=[];autosize=1;strokeColor=none;fillColor=none;" vertex="1" parent="1">
          <mxGeometry x="-707.75" y="875" width="40" height="30" as="geometry" />
        </mxCell>
        <mxCell id="FmWVzvf0NhfrxBf0VVzR-79" value="否" style="text;html=1;align=center;verticalAlign=middle;resizable=0;points=[];autosize=1;strokeColor=none;fillColor=none;" vertex="1" parent="1">
          <mxGeometry x="-810" y="805" width="40" height="30" as="geometry" />
        </mxCell>
        <mxCell id="FmWVzvf0NhfrxBf0VVzR-80" value="否" style="text;html=1;align=center;verticalAlign=middle;resizable=0;points=[];autosize=1;strokeColor=none;fillColor=none;" vertex="1" parent="1">
          <mxGeometry x="-811.5" y="950" width="40" height="30" as="geometry" />
        </mxCell>
        <mxCell id="FmWVzvf0NhfrxBf0VVzR-88" value="是" style="text;html=1;align=center;verticalAlign=middle;resizable=0;points=[];autosize=1;strokeColor=none;fillColor=none;" vertex="1" parent="1">
          <mxGeometry x="-1315" y="775" width="40" height="30" as="geometry" />
        </mxCell>
        <mxCell id="FmWVzvf0NhfrxBf0VVzR-89" value="是" style="text;html=1;align=center;verticalAlign=middle;resizable=0;points=[];autosize=1;strokeColor=none;fillColor=none;" vertex="1" parent="1">
          <mxGeometry x="-908.75" y="1170" width="40" height="30" as="geometry" />
        </mxCell>
        <mxCell id="FmWVzvf0NhfrxBf0VVzR-91" value="是" style="text;html=1;align=center;verticalAlign=middle;resizable=0;points=[];autosize=1;strokeColor=none;fillColor=none;" vertex="1" parent="1">
          <mxGeometry x="-635" y="1000" width="40" height="30" as="geometry" />
        </mxCell>
        <mxCell id="FmWVzvf0NhfrxBf0VVzR-92" value="否" style="text;html=1;align=center;verticalAlign=middle;resizable=0;points=[];autosize=1;strokeColor=none;fillColor=none;" vertex="1" parent="1">
          <mxGeometry x="-762.25" y="1130" width="40" height="30" as="geometry" />
        </mxCell>
        <mxCell id="FmWVzvf0NhfrxBf0VVzR-93" value="否" style="text;html=1;align=center;verticalAlign=middle;resizable=0;points=[];autosize=1;strokeColor=none;fillColor=none;" vertex="1" parent="1">
          <mxGeometry x="-825" y="1050" width="40" height="30" as="geometry" />
        </mxCell>
        <mxCell id="FmWVzvf0NhfrxBf0VVzR-94" value="否" style="text;html=1;align=center;verticalAlign=middle;resizable=0;points=[];autosize=1;strokeColor=none;fillColor=none;" vertex="1" parent="1">
          <mxGeometry x="-1502.5" y="775" width="40" height="30" as="geometry" />
        </mxCell>
        <mxCell id="FmWVzvf0NhfrxBf0VVzR-95" value="否" style="text;html=1;align=center;verticalAlign=middle;resizable=0;points=[];autosize=1;strokeColor=none;fillColor=none;" vertex="1" parent="1">
          <mxGeometry x="-762.25" y="1220" width="40" height="30" as="geometry" />
        </mxCell>
        <mxCell id="FmWVzvf0NhfrxBf0VVzR-96" value="是" style="text;html=1;align=center;verticalAlign=middle;resizable=0;points=[];autosize=1;strokeColor=none;fillColor=none;" vertex="1" parent="1">
          <mxGeometry x="-1440" y="690" width="40" height="30" as="geometry" />
        </mxCell>
        <mxCell id="FmWVzvf0NhfrxBf0VVzR-98" value="是" style="text;html=1;align=center;verticalAlign=middle;resizable=0;points=[];autosize=1;strokeColor=none;fillColor=none;" vertex="1" parent="1">
          <mxGeometry x="-908.75" y="1080" width="40" height="30" as="geometry" />
        </mxCell>
        <mxCell id="FmWVzvf0NhfrxBf0VVzR-99" value="否" style="text;html=1;align=center;verticalAlign=middle;resizable=0;points=[];autosize=1;strokeColor=none;fillColor=none;" vertex="1" parent="1">
          <mxGeometry x="-1295" y="650" width="40" height="30" as="geometry" />
        </mxCell>
        <mxCell id="FmWVzvf0NhfrxBf0VVzR-102" value="否" style="text;html=1;align=center;verticalAlign=middle;resizable=0;points=[];autosize=1;strokeColor=none;fillColor=none;" vertex="1" parent="1">
          <mxGeometry x="-1460" y="840" width="40" height="30" as="geometry" />
        </mxCell>
        <mxCell id="FmWVzvf0NhfrxBf0VVzR-105" value="是" style="text;html=1;align=center;verticalAlign=middle;resizable=0;points=[];autosize=1;strokeColor=none;fillColor=none;" vertex="1" parent="1">
          <mxGeometry x="-1610" y="840" width="40" height="30" as="geometry" />
        </mxCell>
      </root>
    </mxGraphModel>
  </diagram>
</mxfile>
